<?xml version="1.0" encoding="UTF-8"?>
<svg width="47px" height="44px" viewBox="0 0 47 44" version="1.1" xmlns="http://www.w3.org/2000/svg" xmlns:xlink="http://www.w3.org/1999/xlink">
    <!-- Generator: Sketch 60.1 (88133) - https://sketch.com -->
    <title>adapt</title>
    <desc>Created with Sketch.</desc>
    <g id="Page-1" stroke="none" stroke-width="1" fill="none" fill-rule="evenodd">
        <g id="Product-Copy-2" transform="translate(-542.000000, -4797.000000)" fill="#232428">
            <g id="Group-28" transform="translate(162.000000, 4491.000000)">
                <g id="Group-26" transform="translate(380.000000, 306.000000)">
                    <g id="adapt">
                        <path d="M15.4766243,37.8391907 C8.5463719,35.8601967 4.53925074,28.6610753 6.52646863,21.759503 C8.5136865,14.8579307 15.7427245,10.8673926 22.6729768,12.8463866 C23.2060732,12.9986169 23.5143133,13.5523955 23.3614503,14.0832856 C23.2085874,14.6141758 22.6525076,14.9211403 22.1194113,14.76891 C16.2553516,13.0943766 10.1384733,16.4709858 8.4569812,22.3107777 C7.618437,25.2230269 8.0412931,28.19789 9.4032558,30.6563396 C11.0545713,30.6375787 13.5135377,29.9334097 14.9023449,28.3559919 C17.2897724,25.6443336 19.9723866,25.1874295 22.6375159,26.6957677 C24.2942899,27.6334241 25.1636086,29.5255438 25.0279462,31.5185913 C25.0118962,31.5887539 25.0056499,31.6609656 25.0094989,31.7330234 C24.9272162,32.52423 24.686303,33.3264582 24.2732753,34.0867983 C22.4185017,37.5012395 19.5456657,38.8393862 15.8198371,37.8760113 C15.707202,37.8834516 15.5913806,37.8719603 15.4766243,37.8391907 Z M46.3847706,15.9945349 L26.6170378,30.5954903 C26.2982466,28.2803885 25.0207949,26.1959583 22.9306856,25.0210663 C22.906513,25.0074784 22.8823323,24.9940011 22.8581437,24.9806346 C25.0419311,23.6198018 31.464054,20.4001996 44.1328237,13.3218282 C44.9649901,12.856888 46.0111565,13.0429394 46.6302828,13.7659879 C47.1843844,14.4130971 47.1068069,15.3850118 46.4570086,15.9368202 C46.4335134,15.9567724 46.4094232,15.9760193 46.3847706,15.9945349 Z M23.0955785,0 C26.9091267,0 28.0220209,2.73855044 26.6696478,7.4742881 C31.4618101,6.3515801 34.1412899,8.622986 34.1412899,14 C34.1412899,14.5522847 33.6917142,15 33.1371344,15 C32.5825545,15 32.1329788,14.5522847 32.1329788,14 C32.1329788,9.3903507 30.1775362,8.1732568 25.4564722,9.9363292 C24.6492452,10.2377866 23.8609594,9.4527629 24.1636695,8.6488766 C25.9654888,3.86390937 25.4975751,2 23.0955785,2 L2.00831117,2 L2.00831117,42 L32.1329788,42 L32.1329788,31 C32.1329788,30.4477153 32.5825545,30 33.1371344,30 C33.6917142,30 34.1412899,30.4477153 34.1412899,31 L34.1412899,42 C34.1412899,43.1045695 33.2421384,44 32.1329788,44 L2.00831117,44 C0.89915154,44 0,43.1045695 0,42 L0,2 C0,0.8954305 0.89915154,0 2.00831117,0 L23.0955785,0 Z" id="Shape"></path>
                    </g>
                </g>
            </g>
        </g>
    </g>
</svg>