<?xml version="1.0" encoding="UTF-8"?>
<svg width="44px" height="44px" viewBox="0 0 44 44" version="1.1" xmlns="http://www.w3.org/2000/svg" xmlns:xlink="http://www.w3.org/1999/xlink">
    <!-- Generator: Sketch 60.1 (88133) - https://sketch.com -->
    <title>assets</title>
    <desc>Created with Sketch.</desc>
    <g id="Page-1" stroke="none" stroke-width="1" fill="none" fill-rule="evenodd">
        <g id="Product-Copy-2" transform="translate(-162.000000, -4797.000000)" fill="#232428">
            <g id="Group-28" transform="translate(162.000000, 4491.000000)">
                <g id="Group-27" transform="translate(0.000000, 306.000000)">
                    <g id="assets">
                        <path d="M5.1277704,24 L14.8722296,24 C16.6552671,24 17.3018396,24.1856512 17.9536914,24.5342654 C18.6055433,24.8828796 19.1171204,25.3944567 19.4657346,26.0463086 C19.8143488,26.6981604 20,27.3447329 20,29.1277704 L20,38.8722296 C20,40.6552671 19.8143488,41.3018396 19.4657346,41.9536914 C19.1171204,42.6055433 18.6055433,43.1171204 17.9536914,43.4657346 C17.3018396,43.8143488 16.6552671,44 14.8722296,44 L5.1277704,44 C3.34473292,44 2.69816044,43.8143488 2.04630859,43.4657346 C1.39445674,43.1171204 0.88287959,42.6055433 0.53426541,41.9536914 C0.18565122,41.3018396 0,40.6552671 0,38.8722296 L0,29.1277704 C0,27.3447329 0.18565122,26.6981604 0.53426541,26.0463086 C0.88287959,25.3944567 1.39445674,24.8828796 2.04630859,24.5342654 C2.69816044,24.1856512 3.34473292,24 5.1277704,24 Z M5.4185136,26 C4.22982195,26 3.79877363,26.1237675 3.36420573,26.3561769 C2.92963783,26.5885864 2.5885864,26.9296378 2.35617694,27.3642057 C2.12376748,27.7987736 2,28.2298219 2,29.4185136 L2,38.5814864 C2,39.7701781 2.12376748,40.2012264 2.35617694,40.6357943 C2.5885864,41.0703622 2.92963783,41.4114136 3.36420573,41.6438231 C3.79877363,41.8762325 4.22982195,42 5.4185136,42 L14.5814864,42 C15.7701781,42 16.2012264,41.8762325 16.6357943,41.6438231 C17.0703622,41.4114136 17.4114136,41.0703622 17.6438231,40.6357943 C17.8762325,40.2012264 18,39.7701781 18,38.5814864 L18,29.4185136 C18,28.2298219 17.8762325,27.7987736 17.6438231,27.3642057 C17.4114136,26.9296378 17.0703622,26.5885864 16.6357943,26.3561769 C16.2012264,26.1237675 15.7701781,26 14.5814864,26 L5.4185136,26 Z M6.189657,32.8472906 C5.7897267,32.4664046 5.15674997,32.4818431 4.77586393,32.8817734 C4.3949779,33.2817037 4.41041636,33.9146805 4.81034669,34.2955665 L8.4103467,37.7241379 C8.8182746,38.1126407 9.4664487,38.0876839 9.843296,37.6689647 L15.243296,31.6689647 C15.612755,31.2584547 15.5794766,30.6261649 15.1689666,30.2567059 C14.7584566,29.8872468 14.1261667,29.9205252 13.7567077,30.3310353 L9.0448067,35.5664808 L6.189657,32.8472906 Z M34,24 C39.5228475,24 44,28.4771525 44,34 C44,39.5228475 39.5228475,44 34,44 C28.4771525,44 24,39.5228475 24,34 C24,28.4771525 28.4771525,24 34,24 Z M34,26 C29.581722,26 26,29.581722 26,34 C26,38.418278 29.581722,42 34,42 C38.418278,42 42,38.418278 42,34 C42,29.581722 38.418278,26 34,26 Z M34,29 C36.7614237,29 39,31.2385763 39,34 C39,36.7614237 36.7614237,39 34,39 C31.2385763,39 29,36.7614237 29,34 C29,31.2385763 31.2385763,29 34,29 Z M10,0 L34,0 C39.5228475,0 44,4.4771525 44,10 C44,15.5228475 39.5228475,20 34,20 L10,20 C4.4771525,20 0,15.5228475 0,10 C0,4.4771525 4.4771525,0 10,0 Z M10.2173913,2 C5.6790514,2 2,5.581722 2,10 C2,14.418278 5.6790514,18 10.2173913,18 L14.7826087,18 C19.3209486,18 23,14.418278 23,10 C23,5.581722 19.3209486,2 14.7826087,2 L10.2173913,2 Z" id="Shape"></path>
                    </g>
                </g>
            </g>
        </g>
    </g>
</svg>