<?xml version="1.0" encoding="UTF-8"?>
<svg width="50px" height="52px" viewBox="0 0 50 52" version="1.1" xmlns="http://www.w3.org/2000/svg" xmlns:xlink="http://www.w3.org/1999/xlink">
    <!-- Generator: Sketch 60.1 (88133) - https://sketch.com -->
    <title>booster</title>
    <desc>Created with Sketch.</desc>
    <g id="Page-1" stroke="none" stroke-width="1" fill="none" fill-rule="evenodd">
        <g id="Product-Copy-2" transform="translate(-922.000000, -4491.000000)" fill="#232428">
            <g id="Group-28" transform="translate(162.000000, 4491.000000)">
                <g id="Group-24" transform="translate(760.000000, 0.000000)">
                    <g id="booster">
                        <path d="M16.9306138,36.9839182 L19.1679567,18.8285472 L13.6517259,18.8285472 C13.3698305,18.8285472 13.1413092,18.5991982 13.1413092,18.3162819 C13.1413092,18.2186479 13.1691098,18.1230473 13.2214364,18.0407403 L24.5402988,0.236787729 C24.6919271,-0.00171524531 25.0074932,-0.0716959289 25.2451355,0.0804814973 C25.3077652,0.120587292 25.3609166,0.173931157 25.4008777,0.236787729 L36.71974,18.0407403 C36.8713683,18.2792433 36.8016401,18.5959523 36.5639979,18.7481297 C36.4819879,18.8006459 36.3867322,18.8285472 36.2894506,18.8285472 L30.7732198,18.8285472 L33.0105626,36.9839182 L16.9306138,36.9839182 Z M33.0105626,36.9839182 C30.5143263,36.6345233 27.8037213,36.443067 24.9705882,36.443067 C22.1374552,36.443067 19.4268501,36.6345233 16.9306138,36.9839182 L33.0105626,36.9839182 Z M0.47058824,44.6393117 C0.47058824,40.1220816 8.49838172,38.1641668 16.9306138,36.9839182 L15.2142567,50.9116455 C15.1466753,51.4597602 14.6475799,51.8493413 14.0994609,51.7817949 C14.0671527,51.7778135 14.0350582,51.7722568 14.003292,51.7651447 C4.98148949,49.7452621 0.47058824,47.3699844 0.47058824,44.6393117 Z M49.4705882,44.6393117 C49.4705882,47.3699799 44.9597019,49.7452542 35.9379292,51.7651347 C35.3989736,51.8858439 34.8642351,51.5467479 34.7435666,51.0077831 C34.7364539,50.9760144 34.7308967,50.9439172 34.7269149,50.9116064 L33.0105626,36.9839182 C41.4427948,38.1641668 49.4705882,40.1220816 49.4705882,44.6393117 Z M15.0194053,24.1996986 C15.5742144,24.0991015 16.1052317,24.4689421 16.2054657,25.0257605 C16.3056998,25.5825789 15.9371939,26.1155195 15.3823849,26.2161166 C11.8069832,26.8644025 9.6580882,27.8817705 9.6580882,28.3831455 C9.6580882,29.6254525 16.6459166,31.3204141 24.9705882,31.3204141 C33.2952599,31.3204141 40.2830882,29.6254525 40.2830882,28.3831455 C40.2830882,27.8669106 38.0519752,26.8297552 34.3699211,26.1823934 C33.8145872,26.0847571 33.4432643,25.5537897 33.5405482,24.9964445 C33.6378321,24.4390993 34.1668834,24.0664315 34.7222173,24.1640678 C39.4662597,24.9981435 42.3247549,26.3269438 42.3247549,28.3831455 C42.3247549,31.516921 34.6872184,33.3694753 24.9705882,33.3694753 C15.253958,33.3694753 7.61642157,31.516921 7.61642157,28.3831455 C7.61642157,26.3533757 10.3939855,25.0383721 15.0194053,24.1996986 Z" id="Shape"></path>
                    </g>
                </g>
            </g>
        </g>
    </g>
</svg>