<?xml version="1.0" encoding="UTF-8"?>
<svg width="50px" height="44px" viewBox="0 0 50 44" version="1.1" xmlns="http://www.w3.org/2000/svg" xmlns:xlink="http://www.w3.org/1999/xlink">
    <!-- Generator: Sketch 60.1 (88133) - https://sketch.com -->
    <title>code</title>
    <desc>Created with Sketch.</desc>
    <g id="Page-1" stroke="none" stroke-width="1" fill="none" fill-rule="evenodd">
        <g id="Product-Copy-2" transform="translate(-922.000000, -4797.000000)" fill="#232428" fill-rule="nonzero">
            <g id="Group-28" transform="translate(162.000000, 4491.000000)">
                <g id="Group-25" transform="translate(760.000000, 306.000000)">
                    <g id="code">
                        <path d="M50,22.0050355 C50,18.7319753 45.8520179,15.6301213 39.4924582,13.706569 C40.9600489,7.30144198 40.3077864,2.20553902 37.4337546,0.574044404 C36.7713004,0.191348135 35.9967387,0.0100709545 35.1508357,0.0100709545 L35.1508357,2.2558938 C35.6196494,2.2558938 35.9967387,2.34653239 36.3126784,2.51773861 C37.6987362,3.30327306 38.3000408,6.29434653 37.8312271,10.1414511 C37.7191194,11.0881209 37.5356706,12.0851453 37.3114554,13.1023117 C35.3139013,12.6189059 33.1328985,12.2462806 30.839788,12.0045777 C29.4639217,10.1414511 28.0370974,8.44953079 26.6000815,6.96910048 C29.9225438,3.91760128 33.0411741,2.24582284 35.1610273,2.24582284 L35.1610273,0 C35.1610273,0 35.1610273,0 35.1610273,0 C32.3583367,0 28.68936,1.97390707 24.9796168,5.39803159 C21.2698736,1.99404898 17.6008969,0.0402838178 14.7982063,0.0402838178 L14.7982063,2.28610666 C16.9078679,2.28610666 20.0366898,3.94781415 23.3591521,6.97917144 C21.9323278,8.45960174 20.5055035,10.1414511 19.1500204,12.0045777 C16.8467183,12.2462806 14.6657155,12.6189059 12.6681614,13.1123827 C12.4337546,12.1052873 12.2604974,11.1284047 12.1381981,10.1918059 C11.6591928,6.3447013 12.2503057,3.35362783 13.626172,2.55802243 C13.9319201,2.37674525 14.3293926,2.29617762 14.7982063,2.29617762 L14.7982063,0.0503547723 C14.7982063,0.0503547723 14.7982063,0.0503547723 14.7982063,0.0503547723 C13.9421117,0.0503547723 13.1675499,0.231631952 12.4949042,0.614328222 C9.631064,2.24582284 8.98899307,7.33165484 10.4667754,13.71664 C4.12759886,15.6502632 0,18.7420462 0,22.0050355 C0,25.2780957 4.14798206,28.3799496 10.5075418,30.3035019 C9.03995108,36.708629 9.69221362,41.8045319 12.5662454,43.4360266 C13.2286996,43.8187228 14.0032613,44 14.8593559,44 C17.6620465,44 21.3310232,42.0260929 25.0407664,38.6019684 C28.7505096,42.005951 32.4194863,43.9597162 35.2221769,43.9597162 C36.0782715,43.9597162 36.8528333,43.778439 37.525479,43.3957427 C40.3893192,41.7642481 41.0313901,36.6784161 39.5536078,30.293431 C45.8724011,28.3698787 50,25.2680247 50,22.0050355 Z M36.730534,15.2877089 C36.3534448,16.586862 35.8846311,17.9262989 35.3546678,19.2657359 C34.9368121,18.4600595 34.4985732,17.6543832 34.0195679,16.8487068 C33.5507542,16.0430304 33.0513657,15.257496 32.5519772,14.4921035 C33.9991847,14.7035935 35.3954342,14.9654383 36.730534,15.2877089 Z M32.0627803,26.0132753 C31.2678353,27.3728542 30.4525071,28.6619364 29.6066042,29.8603799 C28.0880554,29.9913024 26.5491235,30.061799 25,30.061799 C23.4610681,30.061799 21.9221362,29.9913024 20.413779,29.8704509 C19.5678761,28.6720073 18.7423563,27.3929961 17.9474113,26.0434882 C17.1728496,24.7241932 16.469629,23.3847562 15.8275581,22.0352483 C16.4594374,20.6857404 17.1728496,19.3362325 17.9372197,18.0169375 C18.7321647,16.6573587 19.5474929,15.3682765 20.3933958,14.1698329 C21.9119446,14.0389105 23.4508765,13.9684138 25,13.9684138 C26.5389319,13.9684138 28.0778638,14.0389105 29.586221,14.159762 C30.4321239,15.3582055 31.2576437,16.6372168 32.0525887,17.9867247 C32.8271504,19.3060197 33.530371,20.6454566 34.1724419,21.9949645 C33.530371,23.3444724 32.8271504,24.6939803 32.0627803,26.0132753 Z M35.3546678,24.7040513 C35.9050143,26.0535592 36.373828,27.4030671 36.7611088,28.7122911 C35.426009,29.0345617 34.0195679,29.3064775 32.5621688,29.5179675 C33.0615573,28.742504 33.5609458,27.9468986 34.0297595,27.1311513 C34.4985732,26.3254749 34.9368121,25.5097276 35.3546678,24.7040513 Z M25.0203832,35.4497597 C24.0725642,34.482948 23.1247452,33.4053559 22.1871178,32.2270542 C23.104362,32.2673381 24.0419894,32.2975509 24.9898084,32.2975509 C25.947819,32.2975509 26.895638,32.277409 27.8230738,32.2270542 C26.9058296,33.4053559 25.9580106,34.482948 25.0203832,35.4497597 Z M17.4378312,29.5179675 C15.9906237,29.3064775 14.5943742,29.0446326 13.2592744,28.7223621 C13.6363636,27.423209 14.1051773,26.083772 14.6351406,24.7443351 C15.0529963,25.5500114 15.4912352,26.3556878 15.9702405,27.1613642 C16.4492458,27.9670405 16.9384427,28.752575 17.4378312,29.5179675 Z M24.9694252,8.56031128 C25.9172442,9.52712291 26.8650632,10.604715 27.8026906,11.7830167 C26.8854464,11.7427329 25.947819,11.71252 25,11.71252 C24.0419894,11.71252 23.0941704,11.7326619 22.1667346,11.7830167 C23.0839788,10.604715 24.0317978,9.52712291 24.9694252,8.56031128 Z M17.4276396,14.4921035 C16.9282511,15.2675669 16.4288626,16.0631724 15.9600489,16.8789197 C15.4912352,17.684596 15.0529963,18.4902724 14.6351406,19.2959487 C14.0847941,17.9464408 13.6159804,16.5969329 13.2286996,15.2877089 C14.5637994,14.9755093 15.9702405,14.7035935 17.4276396,14.4921035 Z M8.20423971,27.1009384 C4.59641256,25.5802243 2.26253567,23.5861753 2.26253567,22.0050355 C2.26253567,20.4238956 4.59641256,18.4197757 8.20423971,16.9091325 C9.08071749,16.5365072 10.0387281,16.2041657 11.0273135,15.8919661 C11.6082348,17.8658732 12.372605,19.9203479 13.320424,22.0251774 C12.3827966,24.1199359 11.628618,26.1643397 11.0578883,28.1281758 C10.0489197,27.8159762 9.09090909,27.4735637 8.20423971,27.1009384 Z M13.6873216,41.4923323 C12.3012638,40.7067979 11.6999592,37.7157244 12.1687729,33.8686198 C12.2808806,32.9219501 12.4643294,31.9249256 12.6885446,30.9077592 C14.6860987,31.391165 16.8671015,31.7637903 19.160212,32.0054932 C20.5360783,33.8686198 21.9629026,35.5605402 23.3999185,37.0409705 C20.0774562,40.0924697 16.9588259,41.7642481 14.8389727,41.7642481 C14.3803506,41.7541772 13.9930697,41.6635386 13.6873216,41.4923323 Z M37.8618019,33.818265 C38.3408072,37.6653696 37.7496943,40.6564431 36.373828,41.4520485 C36.0680799,41.6333257 35.6706074,41.7138933 35.2017937,41.7138933 C33.0921321,41.7138933 29.9633102,40.0521859 26.6408479,37.0208286 C28.0676722,35.5403983 29.4944965,33.8585489 30.8499796,31.9954223 C33.1532817,31.7537194 35.3342845,31.3810941 37.3318386,30.8876173 C37.5662454,31.9047837 37.7496943,32.8816663 37.8618019,33.818265 Z M41.7855687,27.1009384 C40.9090909,27.4735637 39.9510803,27.8059052 38.9624949,28.1181048 C38.3815736,26.1441978 37.6172034,24.089723 36.6693844,21.9848936 C37.6070118,19.890135 38.3611904,17.8457313 38.9319201,15.8818952 C39.9408887,16.1940948 40.8988993,16.5365072 41.7957603,16.9091325 C45.4035874,18.4298466 47.7374643,20.4238956 47.7374643,22.0050355 C47.7272727,23.5861753 45.3933958,25.5902953 41.7855687,27.1009384 Z" id="Shape"></path>
                        <circle id="Oval" cx="24.5" cy="21.5" r="4.5"></circle>
                    </g>
                </g>
            </g>
        </g>
    </g>
</svg>