<?xml version="1.0" encoding="UTF-8"?>
<svg width="113px" height="57px" viewBox="0 0 113 57" version="1.1" xmlns="http://www.w3.org/2000/svg" xmlns:xlink="http://www.w3.org/1999/xlink">
    <!-- Generator: Sketch 55.2 (78181) - https://sketchapp.com -->
    <title>fervs</title>
    <desc>Created with Sketch.</desc>
    <g id="website" stroke="none" stroke-width="1" fill="none" fill-rule="evenodd">
        <g id="Product-Copy-2" transform="translate(-161.000000, -39.000000)" fill="#0070FF" fill-rule="nonzero">
            <path d="M181.4285,58.847 C181.3445,59.7710046 180.966503,60.9889924 180.2945,62.501 C178.698492,62.3329992 177.123508,62.249 175.5695,62.249 L175.3175,62.249 C174.435496,72.6230519 173.616504,80.2879752 172.8605,85.244 C172.104496,90.2000248 171.117506,93.6649901 169.8995,95.639 C168.387492,95.5969998 166.823008,95.3975018 165.206,95.0405 C163.588992,94.6834982 162.486503,94.3160019 161.8985,93.938 C162.906505,90.8299845 163.924995,86.1470313 164.954,79.889 C165.983005,73.6309687 166.644499,67.8560265 166.9385,62.564 C165.762494,62.6480004 164.460507,62.7949989 163.0325,63.005 C162.906499,62.4589973 162.8435,61.9025028 162.8435,61.3355 C162.8435,60.7684972 162.927499,59.9390055 163.0955,58.847 L167.1275,58.847 C167.2115,55.1929817 167.400499,52.4210094 167.6945,50.531 C168.198503,47.1709832 169.363991,44.5355096 171.191,42.6245 C173.018009,40.7134904 175.380486,39.758 178.2785,39.758 C180.126509,39.758 181.585995,40.1674959 182.657,40.9865 C183.728005,41.8055041 184.2635,43.0969912 184.2635,44.861 C184.2635,46.6250088 183.465508,48.903486 181.8695,51.6965 C180.273492,54.489514 178.173513,56.8729901 175.5695,58.847 L181.4285,58.847 Z M175.6955,54.878 C177.333508,53.4919931 178.614495,51.9590084 179.5385,50.279 C180.462505,48.5989916 180.9245,47.0765068 180.9245,45.7115 C180.9245,44.3464932 180.483504,43.664 179.6015,43.664 C177.753491,43.664 176.577503,45.7849788 176.0735,50.027 C175.905499,51.4550071 175.7795,53.071991 175.6955,54.878 Z M181.2395,75.101 C181.2395,69.8509738 182.824984,65.7035152 185.996,62.6585 C189.167016,59.6134848 192.76848,58.091 196.8005,58.091 C199.278512,58.091 201.315492,58.6999939 202.9115,59.918 C204.507508,61.1360061 205.3055,62.7634898 205.3055,64.8005 C205.3055,66.8375102 204.791005,68.5489931 203.762,69.935 C202.732995,71.3210069 201.483507,72.3919962 200.0135,73.148 C197.031485,74.6180073 194.301512,75.5419981 191.8235,75.92 L190.3115,76.109 C190.605501,80.0570197 192.222485,82.031 195.1625,82.031 C196.170505,82.031 197.241494,81.7790025 198.3755,81.275 C199.509506,80.7709975 200.391497,80.2670025 201.0215,79.763 L201.9665,79.007 L203.4785,81.023 C203.142498,81.4850023 202.470505,82.0939962 201.4625,82.85 C200.454495,83.6060038 199.509504,84.2359975 198.6275,84.74 C196.191488,86.0840067 193.524514,86.756 190.6265,86.756 C187.728486,86.756 185.439508,85.7270103 183.7595,83.669 C182.079492,81.6109897 181.2395,78.7550183 181.2395,75.101 Z M190.2485,73.022 C192.390511,72.6439981 194.091494,71.7410071 195.3515,70.313 C196.611506,68.8849929 197.2415,67.0370113 197.2415,64.769 C197.2415,62.5009887 196.569507,61.367 195.2255,61.367 C193.629492,61.367 192.401004,62.7214865 191.54,65.4305 C190.678996,68.1395135 190.2485,70.6699882 190.2485,73.022 Z M207.8885,86.189 L207.4475,86.189 C207.3635,85.8529983 207.3215,85.086506 207.3215,83.8895 C207.3215,82.692494 207.888494,79.4690262 209.0225,74.219 C210.156506,68.9689738 210.7235,65.9660038 210.7235,65.21 C210.7235,63.9079935 210.135506,62.4800078 208.9595,60.926 L208.3925,60.17 L208.4555,59.351 C210.723511,58.7209969 214.356475,58.406 219.3545,58.406 C219.858503,59.4980055 220.1105,61.0309901 220.1105,63.005 C220.572502,62.2489962 221.538493,61.2410063 223.0085,59.981 C224.478507,58.7209937 225.990492,58.091 227.5445,58.091 C229.812511,58.091 230.9465,60.0649803 230.9465,64.013 C230.736499,64.2650013 230.453002,64.590498 230.096,64.9895 C229.738998,65.388502 229.025005,65.9449964 227.954,66.659 C226.882995,67.3730036 225.843505,67.8139992 224.8355,67.982 C224.7935,67.982 224.436503,67.4150057 223.7645,66.281 C223.092497,65.1469943 222.588502,64.58 222.2525,64.58 C221.202495,64.9580019 220.278504,65.5879956 219.4805,66.47 C217.54849,75.1640435 216.5825,80.7919872 216.5825,83.354 C216.5825,84.2780046 216.6035,84.9289981 216.6455,85.307 C215.175493,85.8950029 212.256522,86.189 207.8885,86.189 Z M235.6715,58.091 C237.519509,58.091 238.894995,58.4689962 239.798,59.225 C240.701005,59.9810038 241.1525,61.5349882 241.1525,63.887 C241.1525,65.1470063 240.774504,67.7194806 240.0185,71.6045 C239.262496,75.4895194 238.8845,77.8519958 238.8845,78.692 C238.8845,80.3720084 239.220497,81.212 239.8925,81.212 C241.488508,81.212 243.24199,80.0255119 245.153,77.6525 C247.06401,75.2794881 248.0615,73.295008 248.1455,71.699 L243.8615,66.911 C244.029501,65.104991 244.470496,63.4670074 245.1845,61.997 C245.898504,60.5269926 246.570497,59.4980029 247.2005,58.91 L248.0825,58.091 C249.888509,58.091 251.253495,58.5739952 252.1775,59.54 C253.101505,60.5060048 253.5635,61.6399935 253.5635,62.942 C253.5635,66.2600166 252.744508,69.7669815 251.1065,73.463 C249.468492,77.1590185 247.284514,80.2984871 244.5545,82.8815 C241.824486,85.4645129 239.052514,86.756 236.2385,86.756 C234.474491,86.756 233.120005,86.2100055 232.175,85.118 C231.229995,84.0259945 230.7575,82.5875089 230.7575,80.8025 C230.7575,79.0174911 230.893999,76.6130151 231.167,73.589 C231.440001,70.5649849 231.5765,67.5620149 231.5765,64.58 C231.5765,63.9079966 231.335002,63.1100046 230.852,62.186 C230.368998,61.2619954 229.875503,60.5270027 229.3715,59.981 L229.5605,59.225 C231.828511,58.4689962 233.865491,58.091 235.6715,58.091 Z M273.8495,77.747 C273.8495,80.3930132 272.684012,82.5559916 270.353,84.236 C268.021988,85.9160084 265.365515,86.756 262.3835,86.756 C259.401485,86.756 257.039009,86.1260063 255.296,84.866 C253.552991,83.6059937 252.6815,82.4930048 252.6815,81.527 C252.6815,80.9389971 253.416493,79.9835066 254.8865,78.6605 C256.356507,77.3374934 257.595495,76.5290015 258.6035,76.235 C260.70351,77.7890078 262.425493,80.2459832 263.7695,83.606 C265.323508,83.4799994 266.1005,82.7450067 266.1005,81.401 C266.1005,79.4689903 264.399517,76.7285177 260.9975,73.1795 C257.595483,69.6304823 255.8945,66.8060105 255.8945,64.706 C255.8945,62.6059895 256.839491,60.9785058 258.7295,59.8235 C260.619509,58.6684942 262.897987,58.091 265.565,58.091 C268.232013,58.091 270.237493,58.5634953 271.5815,59.5085 C272.925507,60.4535047 273.5975,61.7344919 273.5975,63.3515 C273.5975,64.9685081 272.316513,67.2049857 269.7545,70.061 C270.048501,70.3550015 270.426498,70.7434976 270.8885,71.2265 C271.350502,71.7095024 271.959496,72.6229933 272.7155,73.967 C273.471504,75.3110067 273.8495,76.5709941 273.8495,77.747 Z M267.8015,67.856 C269.565509,66.3439924 270.4475,64.8530073 270.4475,63.383 C270.4475,61.9129926 269.43951,61.178 267.4235,61.178 C266.457495,61.178 265.659503,61.377498 265.0295,61.7765 C264.399497,62.175502 264.0845,62.6269975 264.0845,63.131 C264.0845,64.0550046 265.008491,65.3569916 266.8565,67.037 L267.8015,67.856 Z" id="fervs"></path>
        </g>
    </g>
</svg>