<?xml version="1.0" encoding="UTF-8"?>
<svg width="83px" height="30px" viewBox="0 0 83 30" version="1.1" xmlns="http://www.w3.org/2000/svg" xmlns:xlink="http://www.w3.org/1999/xlink">
    <!-- Generator: Sketch 55.1 (78136) - https://sketchapp.com -->
    <title>fervs-logo</title>
    <desc>Created with Sketch.</desc>
    <g id="website" stroke="none" stroke-width="1" fill="none" fill-rule="evenodd">
        <g id="Product-Copy" transform="translate(-160.000000, -35.000000)" fill="#0070FF" fill-rule="nonzero">
            <g id="Group-14">
                <g id="header">
                    <g transform="translate(161.000000, 36.000000)" id="fervs-logo">
                        <g>
                            <path d="M12.9216807,2.7033946 C12.9216807,3.10216378 12.9081179,3.42186186 12.8809921,3.66249844 C12.8538662,3.90313501 12.8131781,4.08876616 12.7589264,4.21939744 C12.7046746,4.35002872 12.6436424,4.43940668 12.5758278,4.487534 C12.5080131,4.53566131 12.4334182,4.55972461 12.3520406,4.55972461 C12.2571001,4.55972461 12.151989,4.53566131 12.0367041,4.487534 C11.9214193,4.43940668 11.7790107,4.38784248 11.6094741,4.33283983 C11.4399375,4.27783718 11.2398873,4.22627298 11.0093176,4.17814566 C10.7787478,4.13001835 10.5074934,4.10595505 10.1955461,4.10595505 C9.82934706,4.10595505 9.51401375,4.16439449 9.24953668,4.28127511 C8.98505962,4.39815573 8.76466537,4.58378687 8.58834733,4.83817411 C8.41202928,5.09256135 8.28318341,5.42257227 8.20180585,5.82821679 C8.1204283,6.2338613 8.07974013,6.7323153 8.07974013,7.32359374 L8.07974013,9.01491664 L11.3958591,9.01491664 C11.5179254,9.01491664 11.6298179,9.04929278 11.7315398,9.11804609 C11.8332618,9.1867994 11.9180288,9.30024065 11.9858434,9.45837326 C12.053658,9.61650586 12.1045183,9.83307553 12.1384256,10.1080888 C12.1723329,10.383102 12.1892863,10.7199881 12.1892863,11.1187573 C12.1892863,11.8750437 12.1214727,12.4147491 11.9858434,12.7378896 C11.8502141,13.0610302 11.6535547,13.222598 11.3958591,13.222598 L8.07974013,13.222598 L8.07974013,28.1144899 C8.07974013,28.2519965 8.03905196,28.372313 7.9576744,28.475443 C7.87629684,28.5785729 7.74066961,28.6645133 7.55078864,28.7332666 C7.36090767,28.8020199 7.09643457,28.8535841 6.75736141,28.8879607 C6.41828825,28.9223374 6.0046252,28.9395255 5.51635985,28.9395255 C5.02809449,28.9395255 4.61782212,28.9223374 4.28553042,28.8879607 C3.95323873,28.8535841 3.68876563,28.8020199 3.49210319,28.7332666 C3.29544076,28.6645133 3.15981353,28.5785729 3.08521744,28.475443 C3.01062134,28.372313 2.97332385,28.2519965 2.97332385,28.1144899 L2.97332385,13.222598 L0.694763601,13.222598 C0.437067999,13.222598 0.243799196,13.0610302 0.114951395,12.7378896 C-0.0138964065,12.4147491 -0.0783193408,11.8750437 -0.0783193408,11.1187573 C-0.0783193408,10.7199881 -0.061365937,10.383102 -0.0274586209,10.1080888 C0.0064486952,9.83307553 0.0539182257,9.61650586 0.114951395,9.45837326 C0.175984564,9.30024065 0.257360902,9.1867994 0.35908285,9.11804609 C0.460804798,9.04929278 0.579478625,9.01491664 0.715107889,9.01491664 L2.97332385,9.01491664 L2.97332385,7.46797497 C2.97332385,6.21666477 3.09538836,5.12006597 3.33952103,4.17814566 C3.58365371,3.23622535 3.96680064,2.45244941 4.4889733,1.82679431 C5.01114597,1.20113921 5.6757194,0.730186124 6.48271352,0.413920911 C7.28970765,0.0976556977 8.24248894,-0.060474537 9.34108598,-0.060474537 C9.87004011,-0.060474537 10.3718609,-0.0157855577 10.8465633,0.0735937418 C11.3212657,0.162973041 11.6942406,0.259226228 11.9654991,0.362356188 C12.2367577,0.465486149 12.4198544,0.561739336 12.5147949,0.651118635 C12.6097354,0.740497935 12.687721,0.871127259 12.7487542,1.04301053 C12.8097874,1.2148938 12.8538662,1.43490108 12.8809921,1.70303898 C12.9081179,1.97117687 12.9216807,2.30462541 12.9216807,2.7033946 Z M30.9216807,17.8967819 C30.9216807,18.5369442 30.7890716,19.0101005 30.5238496,19.316265 C30.2586276,19.6224296 29.8931442,19.7755096 29.4273884,19.7755096 L18.8897172,19.7755096 C18.8897172,20.5687541 18.9770451,21.2889258 19.1517035,21.9360463 C19.3263619,22.5831669 19.6045174,23.1328632 19.9861784,23.5851517 C20.3678393,24.0374402 20.859463,24.3818702 21.4610642,24.6184519 C22.0626654,24.8550336 22.7839291,24.9733227 23.624877,24.9733227 C24.4787626,24.9733227 25.2291356,24.90722 25.8760186,24.7750125 C26.5229015,24.6428051 27.0824469,24.4966833 27.5546715,24.3366428 C28.0268961,24.1766022 28.4182544,24.0304804 28.7287583,23.898273 C29.0392621,23.7660656 29.2915427,23.6999628 29.4856076,23.6999628 C29.6020465,23.6999628 29.6990775,23.7243165 29.7767035,23.7730245 C29.8543294,23.8217325 29.9190168,23.9087097 29.9707674,24.0339589 C30.0225181,24.159208 30.0580961,24.3366416 30.0775026,24.566265 C30.0969091,24.7958884 30.1066122,25.0846529 30.1066122,25.4325672 C30.1066122,25.7387318 30.1001434,25.9996635 30.0872058,26.2153704 C30.0742681,26.4310772 30.0548619,26.615469 30.0289866,26.7685513 C30.0031113,26.9216336 29.9642989,27.0503599 29.9125482,27.1547342 C29.8607976,27.2591085 29.7928759,27.3600021 29.7087811,27.4574181 C29.6246863,27.5548341 29.3950463,27.6870395 29.0198542,27.8540384 C28.644662,28.0210372 28.1659758,28.1845545 27.5837811,28.344595 C27.0015864,28.5046356 26.3353069,28.6437992 25.5849227,28.7620901 C24.8345384,28.8803809 24.0324155,28.9395255 23.17853,28.9395255 C21.6389485,28.9395255 20.2902177,28.73078 19.1322971,28.3132829 C17.9743765,27.8957858 17.007301,27.2625913 16.2310414,26.4136805 C15.4547818,25.5647697 14.8758302,24.4932099 14.4941692,23.1989688 C14.1125083,21.9047277 13.9216807,20.3878443 13.9216807,18.648273 C13.9216807,16.9922011 14.1222114,15.4996713 14.5232788,14.1706388 C14.9243463,12.8416063 15.5065322,11.714381 16.2698542,10.788929 C17.0331761,9.8634771 17.9614393,9.15722174 19.0546715,8.67014177 C20.1479038,8.18306179 21.3801974,7.93952546 22.7515893,7.93952546 C24.2006072,7.93952546 25.4393696,8.16914543 26.4679135,8.62839226 C27.4964575,9.08763909 28.3406271,9.72431264 29.0004478,10.538432 C29.6602684,11.3525514 30.1454234,12.3162595 30.4559272,13.4295851 C30.7664311,14.5429108 30.9216807,15.7536342 30.9216807,17.0617919 L30.9216807,17.8967819 Z M26.9177343,16.9395255 C26.9602667,15.3829832 26.659,14.1605284 26.013925,13.2721246 C25.3688501,12.3837207 24.3728977,11.9395255 23.026038,11.9395255 C22.3455194,11.9395255 21.7536188,12.0716827 21.2503186,12.3360012 C20.7470184,12.6003197 20.3287893,12.9564102 19.9956187,13.4042832 C19.6624481,13.8521562 19.4072575,14.3807853 19.2300391,14.9901863 C19.0528207,15.5995872 18.9500356,16.2493605 18.9216807,16.9395255 L26.9177343,16.9395255 Z M46.9216807,11.770668 C46.9216807,12.2560092 46.9088826,12.6537133 46.8832862,12.9637924 C46.8576898,13.2738715 46.8192958,13.5165384 46.768103,13.6918005 C46.7169102,13.8670626 46.6497206,13.988396 46.5665323,14.0558045 C46.483344,14.123213 46.3777604,14.1569168 46.2497784,14.1569168 C46.1473928,14.1569168 46.0322107,14.1333241 45.9042287,14.0861382 C45.7762466,14.0389523 45.632269,13.9883966 45.4722915,13.9344699 C45.3123139,13.8805431 45.1363413,13.8299874 44.9443683,13.7828015 C44.7523952,13.7356156 44.5412281,13.7120229 44.3108604,13.7120229 C44.0420982,13.7120229 43.7733399,13.7693193 43.5045777,13.8839137 C43.2358154,13.9985082 42.9574587,14.177138 42.6694992,14.4198086 C42.3815396,14.6624792 42.0807864,14.9860351 41.7672304,15.390486 C41.4536744,15.794937 41.1177267,16.2937524 40.759377,16.8869471 L40.759377,28.1306276 C40.759377,28.2654446 40.720983,28.3834077 40.6441937,28.4845204 C40.5674045,28.5856331 40.4362249,28.6698925 40.250651,28.737301 C40.0650771,28.8047095 39.8187154,28.8552651 39.5115585,28.8889693 C39.2044016,28.9226736 38.8140623,28.9395255 38.3405288,28.9395255 C37.8669953,28.9395255 37.476656,28.9226736 37.1694992,28.8889693 C36.8623423,28.8552651 36.6159806,28.8047095 36.4304067,28.737301 C36.2448327,28.6698925 36.1136531,28.5856331 36.0368639,28.4845204 C35.9600747,28.3834077 35.9216807,28.2654446 35.9216807,28.1306276 L35.9216807,10.0922049 C35.9216807,9.95738795 35.9536757,9.83942486 36.0176667,9.73831212 C36.0816577,9.63719938 36.1968398,9.55294002 36.3632164,9.48553153 C36.5295931,9.41812304 36.7439597,9.36756742 37.0063229,9.33386318 C37.268686,9.30015893 37.5982348,9.28330706 37.9949791,9.28330706 C38.4045216,9.28330706 38.7436688,9.30015893 39.0124311,9.33386318 C39.2811933,9.36756742 39.489161,9.41812304 39.6363403,9.48553153 C39.7835197,9.55294002 39.8891033,9.63719938 39.9530943,9.73831212 C40.0170853,9.83942486 40.0490803,9.95738795 40.0490803,10.0922049 L40.0490803,12.3368965 C40.4970174,11.6628116 40.9193517,11.1066999 41.316096,10.6685447 C41.7128403,10.2303895 42.0903816,9.88324093 42.4487313,9.62708866 C42.8070809,9.37093638 43.1654252,9.19230655 43.5237749,9.09119381 C43.8821246,8.99008107 44.2404689,8.93952546 44.5988185,8.93952546 C44.7651952,8.93952546 44.9443673,8.94963659 45.1363403,8.96985913 C45.3283134,8.99008168 45.5266825,9.02378542 45.7314538,9.07097137 C45.936225,9.11815731 46.1153972,9.1720833 46.2689756,9.23275094 C46.422554,9.29341859 46.5345366,9.3574557 46.6049267,9.42486419 C46.6753168,9.49227268 46.7265089,9.56642091 46.7585044,9.64731111 C46.7904999,9.7282013 46.8192954,9.83942364 46.8448918,9.98098148 C46.8704882,10.1225393 46.8896852,10.3348729 46.9024835,10.6179886 C46.9152817,10.9011042 46.9216807,11.2853269 46.9216807,11.770668 Z M65.9216807,9.7419946 C65.9216807,9.81058205 65.9184374,9.89288575 65.9119509,9.98890818 C65.9054644,10.0849306 65.8924916,10.1912396 65.873032,10.3078382 C65.8535725,10.4244369 65.8276268,10.5581804 65.7951942,10.7090728 C65.7627616,10.8599652 65.7205998,11.0314312 65.6687077,11.2234761 L60.4535726,27.8284144 C60.3887074,28.0616117 60.3011407,28.2502243 60.1908698,28.394258 C60.080599,28.5382916 59.8989792,28.6514592 59.646005,28.7337641 C59.3930307,28.8160691 59.0492504,28.8709382 58.6146536,28.8983732 C58.1800569,28.9258082 57.612495,28.9395255 56.9119509,28.9395255 C56.2243799,28.9395255 55.6633045,28.9223789 55.2287077,28.8880851 C54.7941109,28.8537914 54.4535738,28.795493 54.2070861,28.713188 C53.9605983,28.6308831 53.7822218,28.5177155 53.6719509,28.3736818 C53.5616801,28.2296482 53.4741134,28.0478942 53.4092482,27.8284144 L48.1941131,11.2234761 C48.1162749,10.9491263 48.0546539,10.7022152 48.0092482,10.4827353 C47.9638426,10.2632555 47.9378969,10.1055067 47.9314104,10.0094843 C47.9249239,9.91346188 47.9216807,9.82429954 47.9216807,9.7419946 C47.9216807,9.6048197 47.957356,9.48479347 48.0287077,9.38191229 C48.1000594,9.27903112 48.2265446,9.1932981 48.4081671,9.12471065 C48.5897897,9.0561232 48.8395169,9.00811271 49.1573563,8.98067773 C49.4751958,8.95324275 49.8741107,8.93952546 50.3541131,8.93952546 C50.8860076,8.93952546 51.3141115,8.95667207 51.6384374,8.99096579 C51.9627634,9.02525952 52.218977,9.07327001 52.4070861,9.13499871 C52.5951951,9.19672742 52.7281668,9.28588976 52.806005,9.40248843 C52.8838432,9.51908709 52.9487074,9.65968925 53.0005996,9.82429913 L56.9508698,23.3016654 L57.0676266,23.8160687 L57.1843834,23.3016654 L61.0762753,9.82429913 C61.1151944,9.65968925 61.1768154,9.51908709 61.2611401,9.40248843 C61.3454649,9.28588976 61.4784365,9.19672742 61.660059,9.13499871 C61.8416816,9.07327001 62.0849224,9.02525952 62.3897888,8.99096579 C62.6946552,8.95667207 63.0935701,8.93952546 63.5865455,8.93952546 C64.0665479,8.93952546 64.4589764,8.95324275 64.7638428,8.98067773 C65.0687092,9.00811271 65.3054636,9.0561232 65.4741131,9.12471065 C65.6427626,9.1932981 65.7595182,9.27903112 65.8243834,9.38191229 C65.8892486,9.48479347 65.9216807,9.6048197 65.9216807,9.7419946 Z M81.9216807,22.4892273 C81.9216807,23.5468866 81.7263816,24.4792829 81.3357776,25.286444 C80.9451736,26.093605 80.3935393,26.7685486 79.6808583,27.3112948 C78.9681773,27.8540411 78.1253076,28.2610947 77.152224,28.5324678 C76.1791403,28.8038409 75.12384,28.9395255 73.9862915,28.9395255 C73.3010213,28.9395255 72.6465981,28.8873391 72.0230022,28.7829648 C71.3994064,28.6785905 70.8409195,28.5463851 70.347525,28.3863445 C69.8541305,28.226304 69.4429745,28.0627867 69.1140448,27.8957879 C68.7851151,27.728789 68.5452742,27.57223 68.3945147,27.426106 C68.2437553,27.279982 68.1272611,27.050362 68.0450287,26.7372392 C67.9627963,26.4241163 67.9216807,25.9613973 67.9216807,25.3490682 C67.9216807,24.9454877 67.9353859,24.6219322 67.9627967,24.3783923 C67.9902075,24.1348523 68.0313231,23.9400232 68.0861447,23.7938992 C68.1409663,23.6477752 68.2094923,23.5503607 68.2917247,23.5016527 C68.3739571,23.4529447 68.4767461,23.4285911 68.6000948,23.4285911 C68.7508542,23.4285911 68.9735637,23.5155683 69.2682299,23.6895255 C69.562896,23.8634826 69.9295101,24.0548326 70.368083,24.2635811 C70.8066559,24.4723297 71.3171746,24.6671588 71.8996542,24.8480742 C72.4821339,25.0289896 73.1434097,25.1194459 73.8835015,25.1194459 C74.3494852,25.1194459 74.7640675,25.0707387 75.1272607,24.9733227 C75.4904539,24.8759067 75.8056734,24.7367431 76.0729288,24.5558276 C76.3401842,24.3749122 76.5423359,24.1452923 76.6793899,23.8669609 C76.8164439,23.5886294 76.8849699,23.2685531 76.8849699,22.9067223 C76.8849699,22.4892252 76.7581969,22.1308788 76.5046469,21.8316726 C76.2510969,21.5324663 75.9153196,21.2715345 75.4973047,21.0488694 C75.0792899,20.8262043 74.6064606,20.6174588 74.0788025,20.4226269 C73.5511445,20.2277949 73.0097892,20.0120913 72.4547203,19.7755096 C71.8996515,19.5389279 71.3582961,19.2675588 70.8306381,18.9613943 C70.30298,18.6552297 69.8301507,18.2794879 69.4121359,17.8341577 C68.9941211,17.3888274 68.6583437,16.8530475 68.4047937,16.2268018 C68.1512438,15.6005561 68.0244707,14.8490726 68.0244707,13.9723286 C68.0244707,13.0816681 68.1957857,12.2640819 68.5384207,11.5195453 C68.8810558,10.7750088 69.374443,10.1383353 70.018597,9.60950558 C70.6627509,9.0806759 71.4473735,8.67014323 72.3724883,8.37789524 C73.2976031,8.08564726 74.3357718,7.93952546 75.4870257,7.93952546 C76.0626527,7.93952546 76.6211395,7.98127455 77.162503,8.06477397 C77.7038664,8.1482734 78.1938273,8.25264611 78.6324002,8.37789524 C79.0709731,8.50314438 79.4410135,8.63882891 79.7425323,8.7849529 C80.0440512,8.93107689 80.2599081,9.05632415 80.3901094,9.16069843 C80.5203108,9.2650727 80.6128209,9.36944542 80.6676425,9.4738197 C80.7224641,9.57819398 80.7635797,9.70344123 80.7909905,9.84956522 C80.8184013,9.99568922 80.8423854,10.1766019 80.8629435,10.3923088 C80.8835016,10.6080156 80.8937805,10.8759056 80.8937805,11.1959867 C80.8937805,11.5717341 80.8835016,11.8778941 80.8629435,12.1144758 C80.8423854,12.3510575 80.8081224,12.5389283 80.7601535,12.6780941 C80.7121846,12.8172598 80.6470849,12.9111952 80.5648525,12.9599032 C80.48262,13.0086112 80.3866837,13.0329648 80.2770404,13.0329648 C80.1536918,13.0329648 79.961819,12.9599039 79.7014163,12.8137799 C79.4410137,12.6676559 79.1155152,12.5110969 78.7249112,12.344098 C78.3343072,12.1770992 77.8820357,12.0205401 77.368083,11.8744161 C76.8541304,11.7282921 76.2682331,11.6552312 75.6103738,11.6552312 C75.14439,11.6552312 74.7400867,11.7039385 74.3974516,11.8013545 C74.0548165,11.8987705 73.7738599,12.0379341 73.5545735,12.2188495 C73.335287,12.3997649 73.1708246,12.6119895 73.0611814,12.8555294 C72.9515382,13.0990694 72.8967174,13.3600012 72.8967174,13.6383326 C72.8967174,14.0697463 73.0269168,14.4315717 73.2873194,14.7238197 C73.5477221,15.0160677 73.8903521,15.2735204 74.3152196,15.4961855 C74.7400871,15.7188506 75.2231953,15.9275961 75.7645588,16.122428 C76.3059222,16.31726 76.8541302,16.5294846 77.409199,16.759108 C77.9642679,16.9887314 78.5124758,17.2566213 79.0538392,17.5627859 C79.5952027,17.8689505 80.0783109,18.2446922 80.5031785,18.6900225 C80.928046,19.1353527 81.2706759,19.6676536 81.5310786,20.286941 C81.7914813,20.9062284 81.9216807,21.6403164 81.9216807,22.4892273 Z" id="fervs"></path>
                        </g>
                    </g>
                </g>
            </g>
        </g>
    </g>
</svg>