<?xml version="1.0" encoding="UTF-8"?>
<svg width="83px" height="30px" viewBox="0 0 83 30" version="1.1" xmlns="http://www.w3.org/2000/svg" xmlns:xlink="http://www.w3.org/1999/xlink">
    <!-- Generator: Sketch 55.1 (78136) - https://sketchapp.com -->
    <title>fervs-logo</title>
    <desc>Created with Sketch.</desc>
    <g id="website" stroke="none" stroke-width="1" fill="none" fill-rule="evenodd">
        <g id="Product-Copy" transform="translate(-160.000000, -35.000000)" fill="#0070FF" fill-rule="nonzero">
            <g id="Group-14">
                <g id="header">
                    <g transform="translate(160.000000, 35.000000)" id="fervs-logo">
                        <g>
                            <path d="M13.9216807,3.7033946 C13.9216807,4.10216378 13.9081179,4.42186186 13.8809921,4.66249844 C13.8538662,4.90313501 13.8131781,5.08876616 13.7589264,5.21939744 C13.7046746,5.35002872 13.6436424,5.43940668 13.5758278,5.487534 C13.5080131,5.53566131 13.4334182,5.55972461 13.3520406,5.55972461 C13.2571001,5.55972461 13.151989,5.53566131 13.0367041,5.487534 C12.9214193,5.43940668 12.7790107,5.38784248 12.6094741,5.33283983 C12.4399375,5.27783718 12.2398873,5.22627298 12.0093176,5.17814566 C11.7787478,5.13001835 11.5074934,5.10595505 11.1955461,5.10595505 C10.8293471,5.10595505 10.5140137,5.16439449 10.2495367,5.28127511 C9.98505962,5.39815573 9.76466537,5.58378687 9.58834733,5.83817411 C9.41202928,6.09256135 9.28318341,6.42257227 9.20180585,6.82821679 C9.1204283,7.2338613 9.07974013,7.7323153 9.07974013,8.32359374 L9.07974013,10.0149166 L12.3958591,10.0149166 C12.5179254,10.0149166 12.6298179,10.0492928 12.7315398,10.1180461 C12.8332618,10.1867994 12.9180288,10.3002407 12.9858434,10.4583733 C13.053658,10.6165059 13.1045183,10.8330755 13.1384256,11.1080888 C13.1723329,11.383102 13.1892863,11.7199881 13.1892863,12.1187573 C13.1892863,12.8750437 13.1214727,13.4147491 12.9858434,13.7378896 C12.8502141,14.0610302 12.6535547,14.222598 12.3958591,14.222598 L9.07974013,14.222598 L9.07974013,29.1144899 C9.07974013,29.2519965 9.03905196,29.372313 8.9576744,29.475443 C8.87629684,29.5785729 8.74066961,29.6645133 8.55078864,29.7332666 C8.36090767,29.8020199 8.09643457,29.8535841 7.75736141,29.8879607 C7.41828825,29.9223374 7.0046252,29.9395255 6.51635985,29.9395255 C6.02809449,29.9395255 5.61782212,29.9223374 5.28553042,29.8879607 C4.95323873,29.8535841 4.68876563,29.8020199 4.49210319,29.7332666 C4.29544076,29.6645133 4.15981353,29.5785729 4.08521744,29.475443 C4.01062134,29.372313 3.97332385,29.2519965 3.97332385,29.1144899 L3.97332385,14.222598 L1.6947636,14.222598 C1.437068,14.222598 1.2437992,14.0610302 1.11495139,13.7378896 C0.986103593,13.4147491 0.921680659,12.8750437 0.921680659,12.1187573 C0.921680659,11.7199881 0.938634063,11.383102 0.972541379,11.1080888 C1.0064487,10.8330755 1.05391823,10.6165059 1.11495139,10.4583733 C1.17598456,10.3002407 1.2573609,10.1867994 1.35908285,10.1180461 C1.4608048,10.0492928 1.57947862,10.0149166 1.71510789,10.0149166 L3.97332385,10.0149166 L3.97332385,8.46797497 C3.97332385,7.21666477 4.09538836,6.12006597 4.33952103,5.17814566 C4.58365371,4.23622535 4.96680064,3.45244941 5.4889733,2.82679431 C6.01114597,2.20113921 6.6757194,1.73018612 7.48271352,1.41392091 C8.28970765,1.0976557 9.24248894,0.939525463 10.341086,0.939525463 C10.8700401,0.939525463 11.3718609,0.984214442 11.8465633,1.07359374 C12.3212657,1.16297304 12.6942406,1.25922623 12.9654991,1.36235619 C13.2367577,1.46548615 13.4198544,1.56173934 13.5147949,1.65111864 C13.6097354,1.74049793 13.687721,1.87112726 13.7487542,2.04301053 C13.8097874,2.2148938 13.8538662,2.43490108 13.8809921,2.70303898 C13.9081179,2.97117687 13.9216807,3.30462541 13.9216807,3.7033946 Z M31.9216807,18.8967819 C31.9216807,19.5369442 31.7890716,20.0101005 31.5238496,20.316265 C31.2586276,20.6224296 30.8931442,20.7755096 30.4273884,20.7755096 L19.8897172,20.7755096 C19.8897172,21.5687541 19.9770451,22.2889258 20.1517035,22.9360463 C20.3263619,23.5831669 20.6045174,24.1328632 20.9861784,24.5851517 C21.3678393,25.0374402 21.859463,25.3818702 22.4610642,25.6184519 C23.0626654,25.8550336 23.7839291,25.9733227 24.624877,25.9733227 C25.4787626,25.9733227 26.2291356,25.90722 26.8760186,25.7750125 C27.5229015,25.6428051 28.0824469,25.4966833 28.5546715,25.3366428 C29.0268961,25.1766022 29.4182544,25.0304804 29.7287583,24.898273 C30.0392621,24.7660656 30.2915427,24.6999628 30.4856076,24.6999628 C30.6020465,24.6999628 30.6990775,24.7243165 30.7767035,24.7730245 C30.8543294,24.8217325 30.9190168,24.9087097 30.9707674,25.0339589 C31.0225181,25.159208 31.0580961,25.3366416 31.0775026,25.566265 C31.0969091,25.7958884 31.1066122,26.0846529 31.1066122,26.4325672 C31.1066122,26.7387318 31.1001434,26.9996635 31.0872058,27.2153704 C31.0742681,27.4310772 31.0548619,27.615469 31.0289866,27.7685513 C31.0031113,27.9216336 30.9642989,28.0503599 30.9125482,28.1547342 C30.8607976,28.2591085 30.7928759,28.3600021 30.7087811,28.4574181 C30.6246863,28.5548341 30.3950463,28.6870395 30.0198542,28.8540384 C29.644662,29.0210372 29.1659758,29.1845545 28.5837811,29.344595 C28.0015864,29.5046356 27.3353069,29.6437992 26.5849227,29.7620901 C25.8345384,29.8803809 25.0324155,29.9395255 24.17853,29.9395255 C22.6389485,29.9395255 21.2902177,29.73078 20.1322971,29.3132829 C18.9743765,28.8957858 18.007301,28.2625913 17.2310414,27.4136805 C16.4547818,26.5647697 15.8758302,25.4932099 15.4941692,24.1989688 C15.1125083,22.9047277 14.9216807,21.3878443 14.9216807,19.648273 C14.9216807,17.9922011 15.1222114,16.4996713 15.5232788,15.1706388 C15.9243463,13.8416063 16.5065322,12.714381 17.2698542,11.788929 C18.0331761,10.8634771 18.9614393,10.1572217 20.0546715,9.67014177 C21.1479038,9.18306179 22.3801974,8.93952546 23.7515893,8.93952546 C25.2006072,8.93952546 26.4393696,9.16914543 27.4679135,9.62839226 C28.4964575,10.0876391 29.3406271,10.7243126 30.0004478,11.538432 C30.6602684,12.3525514 31.1454234,13.3162595 31.4559272,14.4295851 C31.7664311,15.5429108 31.9216807,16.7536342 31.9216807,18.0617919 L31.9216807,18.8967819 Z M27.9177343,17.9395255 C27.9602667,16.3829832 27.659,15.1605284 27.013925,14.2721246 C26.3688501,13.3837207 25.3728977,12.9395255 24.026038,12.9395255 C23.3455194,12.9395255 22.7536188,13.0716827 22.2503186,13.3360012 C21.7470184,13.6003197 21.3287893,13.9564102 20.9956187,14.4042832 C20.6624481,14.8521562 20.4072575,15.3807853 20.2300391,15.9901863 C20.0528207,16.5995872 19.9500356,17.2493605 19.9216807,17.9395255 L27.9177343,17.9395255 Z M45.9216807,12.770668 C45.9216807,13.2560092 45.9088826,13.6537133 45.8832862,13.9637924 C45.8576898,14.2738715 45.8192958,14.5165384 45.768103,14.6918005 C45.7169102,14.8670626 45.6497206,14.988396 45.5665323,15.0558045 C45.483344,15.123213 45.3777604,15.1569168 45.2497784,15.1569168 C45.1473928,15.1569168 45.0322107,15.1333241 44.9042287,15.0861382 C44.7762466,15.0389523 44.632269,14.9883966 44.4722915,14.9344699 C44.3123139,14.8805431 44.1363413,14.8299874 43.9443683,14.7828015 C43.7523952,14.7356156 43.5412281,14.7120229 43.3108604,14.7120229 C43.0420982,14.7120229 42.7733399,14.7693193 42.5045777,14.8839137 C42.2358154,14.9985082 41.9574587,15.177138 41.6694992,15.4198086 C41.3815396,15.6624792 41.0807864,15.9860351 40.7672304,16.390486 C40.4536744,16.794937 40.1177267,17.2937524 39.759377,17.8869471 L39.759377,29.1306276 C39.759377,29.2654446 39.720983,29.3834077 39.6441937,29.4845204 C39.5674045,29.5856331 39.4362249,29.6698925 39.250651,29.737301 C39.0650771,29.8047095 38.8187154,29.8552651 38.5115585,29.8889693 C38.2044016,29.9226736 37.8140623,29.9395255 37.3405288,29.9395255 C36.8669953,29.9395255 36.476656,29.9226736 36.1694992,29.8889693 C35.8623423,29.8552651 35.6159806,29.8047095 35.4304067,29.737301 C35.2448327,29.6698925 35.1136531,29.5856331 35.0368639,29.4845204 C34.9600747,29.3834077 34.9216807,29.2654446 34.9216807,29.1306276 L34.9216807,11.0922049 C34.9216807,10.957388 34.9536757,10.8394249 35.0176667,10.7383121 C35.0816577,10.6371994 35.1968398,10.55294 35.3632164,10.4855315 C35.5295931,10.418123 35.7439597,10.3675674 36.0063229,10.3338632 C36.268686,10.3001589 36.5982348,10.2833071 36.9949791,10.2833071 C37.4045216,10.2833071 37.7436688,10.3001589 38.0124311,10.3338632 C38.2811933,10.3675674 38.489161,10.418123 38.6363403,10.4855315 C38.7835197,10.55294 38.8891033,10.6371994 38.9530943,10.7383121 C39.0170853,10.8394249 39.0490803,10.957388 39.0490803,11.0922049 L39.0490803,13.3368965 C39.4970174,12.6628116 39.9193517,12.1066999 40.316096,11.6685447 C40.7128403,11.2303895 41.0903816,10.8832409 41.4487313,10.6270887 C41.8070809,10.3709364 42.1654252,10.1923066 42.5237749,10.0911938 C42.8821246,9.99008107 43.2404689,9.93952546 43.5988185,9.93952546 C43.7651952,9.93952546 43.9443673,9.94963659 44.1363403,9.96985913 C44.3283134,9.99008168 44.5266825,10.0237854 44.7314538,10.0709714 C44.936225,10.1181573 45.1153972,10.1720833 45.2689756,10.2327509 C45.422554,10.2934186 45.5345366,10.3574557 45.6049267,10.4248642 C45.6753168,10.4922727 45.7265089,10.5664209 45.7585044,10.6473111 C45.7904999,10.7282013 45.8192954,10.8394236 45.8448918,10.9809815 C45.8704882,11.1225393 45.8896852,11.3348729 45.9024835,11.6179886 C45.9152817,11.9011042 45.9216807,12.2853269 45.9216807,12.770668 Z M66.9216807,10.7419946 C66.9216807,10.810582 66.9184374,10.8928858 66.9119509,10.9889082 C66.9054644,11.0849306 66.8924916,11.1912396 66.873032,11.3078382 C66.8535725,11.4244369 66.8276268,11.5581804 66.7951942,11.7090728 C66.7627616,11.8599652 66.7205998,12.0314312 66.6687077,12.2234761 L61.4535726,28.8284144 C61.3887074,29.0616117 61.3011407,29.2502243 61.1908698,29.394258 C61.080599,29.5382916 60.8989792,29.6514592 60.646005,29.7337641 C60.3930307,29.8160691 60.0492504,29.8709382 59.6146536,29.8983732 C59.1800569,29.9258082 58.612495,29.9395255 57.9119509,29.9395255 C57.2243799,29.9395255 56.6633045,29.9223789 56.2287077,29.8880851 C55.7941109,29.8537914 55.4535738,29.795493 55.2070861,29.713188 C54.9605983,29.6308831 54.7822218,29.5177155 54.6719509,29.3736818 C54.5616801,29.2296482 54.4741134,29.0478942 54.4092482,28.8284144 L49.1941131,12.2234761 C49.1162749,11.9491263 49.0546539,11.7022152 49.0092482,11.4827353 C48.9638426,11.2632555 48.9378969,11.1055067 48.9314104,11.0094843 C48.9249239,10.9134619 48.9216807,10.8242995 48.9216807,10.7419946 C48.9216807,10.6048197 48.957356,10.4847935 49.0287077,10.3819123 C49.1000594,10.2790311 49.2265446,10.1932981 49.4081671,10.1247106 C49.5897897,10.0561232 49.8395169,10.0081127 50.1573563,9.98067773 C50.4751958,9.95324275 50.8741107,9.93952546 51.3541131,9.93952546 C51.8860076,9.93952546 52.3141115,9.95667207 52.6384374,9.99096579 C52.9627634,10.0252595 53.218977,10.07327 53.4070861,10.1349987 C53.5951951,10.1967274 53.7281668,10.2858898 53.806005,10.4024884 C53.8838432,10.5190871 53.9487074,10.6596892 54.0005996,10.8242991 L57.9508698,24.3016654 L58.0676266,24.8160687 L58.1843834,24.3016654 L62.0762753,10.8242991 C62.1151944,10.6596892 62.1768154,10.5190871 62.2611401,10.4024884 C62.3454649,10.2858898 62.4784365,10.1967274 62.660059,10.1349987 C62.8416816,10.07327 63.0849224,10.0252595 63.3897888,9.99096579 C63.6946552,9.95667207 64.0935701,9.93952546 64.5865455,9.93952546 C65.0665479,9.93952546 65.4589764,9.95324275 65.7638428,9.98067773 C66.0687092,10.0081127 66.3054636,10.0561232 66.4741131,10.1247106 C66.6427626,10.1932981 66.7595182,10.2790311 66.8243834,10.3819123 C66.8892486,10.4847935 66.9216807,10.6048197 66.9216807,10.7419946 Z M82.9216807,23.4892273 C82.9216807,24.5468866 82.7263816,25.4792829 82.3357776,26.286444 C81.9451736,27.093605 81.3935393,27.7685486 80.6808583,28.3112948 C79.9681773,28.8540411 79.1253076,29.2610947 78.152224,29.5324678 C77.1791403,29.8038409 76.12384,29.9395255 74.9862915,29.9395255 C74.3010213,29.9395255 73.6465981,29.8873391 73.0230022,29.7829648 C72.3994064,29.6785905 71.8409195,29.5463851 71.347525,29.3863445 C70.8541305,29.226304 70.4429745,29.0627867 70.1140448,28.8957879 C69.7851151,28.728789 69.5452742,28.57223 69.3945147,28.426106 C69.2437553,28.279982 69.1272611,28.050362 69.0450287,27.7372392 C68.9627963,27.4241163 68.9216807,26.9613973 68.9216807,26.3490682 C68.9216807,25.9454877 68.9353859,25.6219322 68.9627967,25.3783923 C68.9902075,25.1348523 69.0313231,24.9400232 69.0861447,24.7938992 C69.1409663,24.6477752 69.2094923,24.5503607 69.2917247,24.5016527 C69.3739571,24.4529447 69.4767461,24.4285911 69.6000948,24.4285911 C69.7508542,24.4285911 69.9735637,24.5155683 70.2682299,24.6895255 C70.562896,24.8634826 70.9295101,25.0548326 71.368083,25.2635811 C71.8066559,25.4723297 72.3171746,25.6671588 72.8996542,25.8480742 C73.4821339,26.0289896 74.1434097,26.1194459 74.8835015,26.1194459 C75.3494852,26.1194459 75.7640675,26.0707387 76.1272607,25.9733227 C76.4904539,25.8759067 76.8056734,25.7367431 77.0729288,25.5558276 C77.3401842,25.3749122 77.5423359,25.1452923 77.6793899,24.8669609 C77.8164439,24.5886294 77.8849699,24.2685531 77.8849699,23.9067223 C77.8849699,23.4892252 77.7581969,23.1308788 77.5046469,22.8316726 C77.2510969,22.5324663 76.9153196,22.2715345 76.4973047,22.0488694 C76.0792899,21.8262043 75.6064606,21.6174588 75.0788025,21.4226269 C74.5511445,21.2277949 74.0097892,21.0120913 73.4547203,20.7755096 C72.8996515,20.5389279 72.3582961,20.2675588 71.8306381,19.9613943 C71.30298,19.6552297 70.8301507,19.2794879 70.4121359,18.8341577 C69.9941211,18.3888274 69.6583437,17.8530475 69.4047937,17.2268018 C69.1512438,16.6005561 69.0244707,15.8490726 69.0244707,14.9723286 C69.0244707,14.0816681 69.1957857,13.2640819 69.5384207,12.5195453 C69.8810558,11.7750088 70.374443,11.1383353 71.018597,10.6095056 C71.6627509,10.0806759 72.4473735,9.67014323 73.3724883,9.37789524 C74.2976031,9.08564726 75.3357718,8.93952546 76.4870257,8.93952546 C77.0626527,8.93952546 77.6211395,8.98127455 78.162503,9.06477397 C78.7038664,9.1482734 79.1938273,9.25264611 79.6324002,9.37789524 C80.0709731,9.50314438 80.4410135,9.63882891 80.7425323,9.7849529 C81.0440512,9.93107689 81.2599081,10.0563241 81.3901094,10.1606984 C81.5203108,10.2650727 81.6128209,10.3694454 81.6676425,10.4738197 C81.7224641,10.578194 81.7635797,10.7034412 81.7909905,10.8495652 C81.8184013,10.9956892 81.8423854,11.1766019 81.8629435,11.3923088 C81.8835016,11.6080156 81.8937805,11.8759056 81.8937805,12.1959867 C81.8937805,12.5717341 81.8835016,12.8778941 81.8629435,13.1144758 C81.8423854,13.3510575 81.8081224,13.5389283 81.7601535,13.6780941 C81.7121846,13.8172598 81.6470849,13.9111952 81.5648525,13.9599032 C81.48262,14.0086112 81.3866837,14.0329648 81.2770404,14.0329648 C81.1536918,14.0329648 80.961819,13.9599039 80.7014163,13.8137799 C80.4410137,13.6676559 80.1155152,13.5110969 79.7249112,13.344098 C79.3343072,13.1770992 78.8820357,13.0205401 78.368083,12.8744161 C77.8541304,12.7282921 77.2682331,12.6552312 76.6103738,12.6552312 C76.14439,12.6552312 75.7400867,12.7039385 75.3974516,12.8013545 C75.0548165,12.8987705 74.7738599,13.0379341 74.5545735,13.2188495 C74.335287,13.3997649 74.1708246,13.6119895 74.0611814,13.8555294 C73.9515382,14.0990694 73.8967174,14.3600012 73.8967174,14.6383326 C73.8967174,15.0697463 74.0269168,15.4315717 74.2873194,15.7238197 C74.5477221,16.0160677 74.8903521,16.2735204 75.3152196,16.4961855 C75.7400871,16.7188506 76.2231953,16.9275961 76.7645588,17.122428 C77.3059222,17.31726 77.8541302,17.5294846 78.409199,17.759108 C78.9642679,17.9887314 79.5124758,18.2566213 80.0538392,18.5627859 C80.5952027,18.8689505 81.0783109,19.2446922 81.5031785,19.6900225 C81.928046,20.1353527 82.2706759,20.6676536 82.5310786,21.286941 C82.7914813,21.9062284 82.9216807,22.6403164 82.9216807,23.4892273 Z" id="fervs"></path>
                        </g>
                    </g>
                </g>
            </g>
        </g>
    </g>
</svg>