<?xml version="1.0" encoding="UTF-8"?>
<svg width="52px" height="41px" viewBox="0 0 52 41" version="1.1" xmlns="http://www.w3.org/2000/svg" xmlns:xlink="http://www.w3.org/1999/xlink">
    <!-- Generator: Sketch 60.1 (88133) - https://sketch.com -->
    <title>friendly</title>
    <desc>Created with Sketch.</desc>
    <g id="Page-1" stroke="none" stroke-width="1" fill="none" fill-rule="evenodd">
        <g id="Product-Copy-2" transform="translate(-162.000000, -4497.000000)" fill="#232428">
            <g id="Group-28" transform="translate(162.000000, 4491.000000)">
                <g id="Group-22" transform="translate(0.000000, 6.000000)">
                    <g id="friendly">
                        <path d="M4,0 L20,0 C22.209139,0 24,1.790861 24,4 L24,37 C24,39.209139 22.209139,41 20,41 L4,41 C1.790861,41 1.0658141e-14,39.209139 1.0658141e-14,37 L1.0658141e-14,4 C1.0658141e-14,1.790861 1.790861,0 4,0 Z M33.1428571,0 L46.8571429,0 C49.6974644,0 52,2.29454066 52,5.125 L52,35.875 C52,38.7054593 49.6974644,41 46.8571429,41 L33.1428571,41 C30.3025356,41 28,38.7054593 28,35.875 L28,5.125 C28,2.29454066 30.3025356,0 33.1428571,0 Z M34.6616095,2 C33.0406663,2 32.4528731,2.17613065 31.8602805,2.50686718 C31.2676879,2.83760372 30.8026178,3.32294614 30.4856958,3.94136969 C30.1687738,4.5597932 30,5.1732082 30,6.8648078 L30,34.1351922 C30,35.8267918 30.1687738,36.4402068 30.4856958,37.0586303 C30.8026178,37.6770539 31.2676879,38.1623963 31.8602805,38.4931328 C32.4528731,38.8238694 33.0406663,39 34.6616095,39 L45.3383905,39 C46.9593337,39 47.5471269,38.8238694 48.1397195,38.4931328 C48.7323121,38.1623963 49.1973822,37.6770539 49.5143042,37.0586303 C49.8312262,36.4402068 50,35.8267918 50,34.1351922 L50,6.8648078 C50,5.1732082 49.8312262,4.5597932 49.5143042,3.94136969 C49.1973822,3.32294614 48.7323121,2.83760372 48.1397195,2.50686718 C47.5471269,2.17613065 46.9593337,2 45.3383905,2 L34.6616095,2 Z M35,2 C35,3.1045695 36.1192881,4 37.5,4 L42.5,4 C43.8807119,4 45,3.1045695 45,2 L35,2 Z M8.5,18 C9.32842712,18 10,17.3284271 10,16.5 C10,15.6715729 9.32842712,15 8.5,15 C7.67157288,15 7,15.6715729 7,16.5 C7,17.3284271 7.67157288,18 8.5,18 Z M15.5,18 C16.3284271,18 17,17.3284271 17,16.5 C17,15.6715729 16.3284271,15 15.5,15 C14.6715729,15 14,15.6715729 14,16.5 C14,17.3284271 14.6715729,18 15.5,18 Z M36.5,18 C35.6715729,18 35,17.3284271 35,16.5 C35,15.6715729 35.6715729,15 36.5,15 C37.3284271,15 38,15.6715729 38,16.5 C38,17.3284271 37.3284271,18 36.5,18 Z M43.5,18 C42.6715729,18 42,17.3284271 42,16.5 C42,15.6715729 42.6715729,15 43.5,15 C44.3284271,15 45,15.6715729 45,16.5 C45,17.3284271 44.3284271,18 43.5,18 Z M34.2928932,24.7071068 C33.9023689,24.3165825 33.9023689,23.6834175 34.2928932,23.2928932 C34.6834175,22.9023689 35.3165825,22.9023689 35.7071068,23.2928932 C36.8497131,24.4354995 38.2609642,25 40,25 C41.7390358,25 43.1502869,24.4354995 44.2928932,23.2928932 C44.6834175,22.9023689 45.3165825,22.9023689 45.7071068,23.2928932 C46.0976311,23.6834175 46.0976311,24.3165825 45.7071068,24.7071068 C44.1830464,26.2311671 42.2609642,27 40,27 C37.7390358,27 35.8169536,26.2311671 34.2928932,24.7071068 Z M6.29289322,24.7071068 C7.81695356,26.2311671 9.73903575,27 12,27 C14.2609642,27 16.1830464,26.2311671 17.7071068,24.7071068 C18.0976311,24.3165825 18.0976311,23.6834175 17.7071068,23.2928932 C17.3165825,22.9023689 16.6834175,22.9023689 16.2928932,23.2928932 C15.1502869,24.4354995 13.7390358,25 12,25 C10.2609642,25 8.8497131,24.4354995 7.70710678,23.2928932 C7.31658249,22.9023689 6.68341751,22.9023689 6.29289322,23.2928932 C5.90236893,23.6834175 5.90236893,24.3165825 6.29289322,24.7071068 Z" id="Shape"></path>
                    </g>
                </g>
            </g>
        </g>
    </g>
</svg>