<?xml version="1.0" encoding="UTF-8"?>
<svg width="23px" height="35px" viewBox="0 0 23 35" version="1.1" xmlns="http://www.w3.org/2000/svg" xmlns:xlink="http://www.w3.org/1999/xlink">
    <!-- Generator: Sketch 55.1 (78136) - https://sketchapp.com -->
    <title>ios</title>
    <desc>Created with Sketch.</desc>
    <g id="website" stroke="none" stroke-width="1" fill="none" fill-rule="evenodd" opacity="0.408505394">
        <g id="Product-Copy" transform="translate(-293.000000, -684.000000)" fill-rule="nonzero">
            <g id="Group-14">
                <g id="header">
                    <g id="Group-2" transform="translate(166.000000, 677.000000)">
                        <g id="Group-15" transform="translate(127.000000, 0.000000)">
                            <g id="ios" transform="translate(0.000000, 7.000000)">
                                <rect id="Rectangle" fill="#FFFFFF" x="0" y="0" width="23" height="35"></rect>
                                <path d="M22.0493529,21.0611795 C21.6450047,22.0053802 21.1663886,22.8745119 20.6118539,23.6735792 C19.8559704,24.7629132 19.2370702,25.5169391 18.7601044,25.9356571 C18.0207249,26.6229551 17.2285326,26.9749451 16.3802266,26.9949635 C15.7712288,26.9949635 15.0368005,26.8198026 14.1818929,26.4644762 C13.3241797,26.110818 12.5359483,25.9356571 11.8152184,25.9356571 C11.0593349,25.9356571 10.2486581,26.110818 9.38153755,26.4644762 C8.51309672,26.8198026 7.81349188,27.0049726 7.27859702,27.0233228 C6.46511453,27.058355 5.65427268,26.6963558 4.8449162,25.9356571 C4.32834079,25.4802387 3.68220893,24.6995216 2.90817102,23.5935056 C2.0776894,22.4124207 1.39491864,21.0428293 0.860023788,19.481395 C0.287169716,17.7948458 0,16.161679 0,14.5805599 C0,12.7693963 0.387183996,11.2072947 1.16270727,9.89825892 C1.77220024,8.84679307 2.58304208,8.01736452 3.59787345,7.40847187 C4.61270482,6.79957923 5.70923103,6.48929421 6.8900927,6.46944264 C7.53622457,6.46944264 8.38354027,6.67146154 9.43649589,7.06849291 C10.4864808,7.46685884 11.1606695,7.66887774 11.4562562,7.66887774 C11.6772449,7.66887774 12.4261967,7.43266076 13.6958499,6.96172817 C14.8965164,6.52499367 15.9098624,6.34416089 16.740014,6.41539299 C18.9895101,6.59889489 20.6795204,7.49521822 21.8034432,9.11003488 C19.7916048,10.3421667 18.7964132,12.0679186 18.816218,14.2817855 C18.8343724,16.0062028 19.4532727,17.4411876 20.669618,18.5805676 C21.2208518,19.1093867 21.8364512,19.5180954 22.5213675,19.8083621 C22.3728314,20.243762 22.2160434,20.6608118 22.0493529,21.0611795 L22.0493529,21.0611795 Z M16.8902004,0.540663304 C16.8902004,1.89225484 16.4016818,3.15423072 15.4279454,4.32230368 C14.2528602,5.71091254 12.8315351,6.51331628 11.2902259,6.38669997 C11.2705862,6.22455102 11.2591984,6.05389426 11.2591984,5.87456287 C11.2591984,4.57703767 11.8180241,3.1884288 12.81041,2.05305254 C13.3058603,1.47819116 13.9359832,1.00020209 14.7001187,0.618901839 C15.4626038,0.243290146 16.1838289,0.0355660032 16.8621436,0 C16.8819484,0.180682636 16.8902004,0.361381955 16.8902004,0.540646622 L16.8902004,0.540663304 Z" id="Shape" fill="#000000"></path>
                            </g>
                        </g>
                    </g>
                </g>
            </g>
        </g>
    </g>
</svg>