<?xml version="1.0" encoding="UTF-8"?>
<svg width="30px" height="28px" viewBox="0 0 30 28" version="1.1" xmlns="http://www.w3.org/2000/svg" xmlns:xlink="http://www.w3.org/1999/xlink">
    <!-- Generator: Sketch 60.1 (88133) - https://sketch.com -->
    <title>ios</title>
    <desc>Created with Sketch.</desc>
    <g id="Page-1" stroke="none" stroke-width="1" fill="none" fill-rule="evenodd">
        <g id="Product-Copy-2" transform="translate(-162.000000, -683.000000)" fill-rule="nonzero">
            <g id="header">
                <g id="Group-2" transform="translate(162.000000, 635.000000)">
                    <g id="Group-15" transform="translate(0.000000, 41.000000)">
                        <g id="ios" transform="translate(0.000000, 7.000000)">
                            <rect id="Rectangle" fill="#FFFFFF" x="0" y="0" width="30" height="28"></rect>
                            <path d="M26.0493529,21.0611795 C25.6450047,22.0053802 25.1663886,22.8745119 24.6118539,23.6735792 C23.8559704,24.7629132 23.2370702,25.5169391 22.7601044,25.9356571 C22.0207249,26.6229551 21.2285326,26.9749451 20.3802266,26.9949635 C19.7712288,26.9949635 19.0368005,26.8198026 18.1818929,26.4644762 C17.3241797,26.110818 16.5359483,25.9356571 15.8152184,25.9356571 C15.0593349,25.9356571 14.2486581,26.110818 13.3815376,26.4644762 C12.5130967,26.8198026 11.8134919,27.0049726 11.278597,27.0233228 C10.4651145,27.058355 9.65427268,26.6963558 8.8449162,25.9356571 C8.32834079,25.4802387 7.68220893,24.6995216 6.90817102,23.5935056 C6.0776894,22.4124207 5.39491864,21.0428293 4.86002379,19.481395 C4.28716972,17.7948458 4,16.161679 4,14.5805599 C4,12.7693963 4.387184,11.2072947 5.16270727,9.89825892 C5.77220024,8.84679307 6.58304208,8.01736452 7.59787345,7.40847187 C8.61270482,6.79957923 9.70923103,6.48929421 10.8900927,6.46944264 C11.5362246,6.46944264 12.3835403,6.67146154 13.4364959,7.06849291 C14.4864808,7.46685884 15.1606695,7.66887774 15.4562562,7.66887774 C15.6772449,7.66887774 16.4261967,7.43266076 17.6958499,6.96172817 C18.8965164,6.52499367 19.9098624,6.34416089 20.740014,6.41539299 C22.9895101,6.59889489 24.6795204,7.49521822 25.8034432,9.11003488 C23.7916048,10.3421667 22.7964132,12.0679186 22.816218,14.2817855 C22.8343724,16.0062028 23.4532727,17.4411876 24.669618,18.5805676 C25.2208518,19.1093867 25.8364512,19.5180954 26.5213675,19.8083621 C26.3728314,20.243762 26.2160434,20.6608118 26.0493529,21.0611795 L26.0493529,21.0611795 Z M20.8902004,0.540663304 C20.8902004,1.89225484 20.4016818,3.15423072 19.4279454,4.32230368 C18.2528602,5.71091254 16.8315351,6.51331628 15.2902259,6.38669997 C15.2705862,6.22455102 15.2591984,6.05389426 15.2591984,5.87456287 C15.2591984,4.57703767 15.8180241,3.1884288 16.81041,2.05305254 C17.3058603,1.47819116 17.9359832,1.00020209 18.7001187,0.618901839 C19.4626038,0.243290146 20.1838289,0.0355660032 20.8621436,9.9475983e-14 C20.8819484,0.180682636 20.8902004,0.361381955 20.8902004,0.540646622 L20.8902004,0.540663304 Z" id="Shape" fill="#000000"></path>
                        </g>
                    </g>
                </g>
            </g>
        </g>
    </g>
</svg>