<?xml version="1.0" encoding="UTF-8"?>
<svg width="31px" height="27px" viewBox="0 0 31 27" version="1.1" xmlns="http://www.w3.org/2000/svg" xmlns:xlink="http://www.w3.org/1999/xlink">
    <!-- Generator: Sketch 60.1 (88133) - https://sketch.com -->
    <title>react-icon</title>
    <desc>Created with Sketch.</desc>
    <g id="Page-1" stroke="none" stroke-width="1" fill="none" fill-rule="evenodd">
        <g id="Product-Copy-2" transform="translate(-377.000000, -685.000000)" fill="#61DAFB" fill-rule="nonzero">
            <g id="header">
                <g id="Group-2" transform="translate(162.000000, 635.000000)">
                    <g id="React-icon" transform="translate(215.000000, 43.000000)">
                        <g id="Group-17" transform="translate(0.000000, 7.000000)">
                            <g id="react-icon">
                                <path d="M30.2142857,13.50309 C30.2142857,11.4946212 27.7077194,9.5912108 23.8647283,8.41084916 C24.7515724,4.4804303 24.3574195,1.35339895 22.6206831,0.35225452 C22.2203716,0.117418173 21.7523149,0.00617990387 21.2411479,0.00617990387 L21.2411479,1.38429847 C21.5244453,1.38429847 21.7523149,1.4399176 21.9432328,1.54497597 C22.7808078,2.02700847 23.1441675,3.86243992 22.8608701,6.2231632 C22.793125,6.80407416 22.6822695,7.41588464 22.5467795,8.04005493 C21.3396861,7.74341955 20.0217372,7.5147631 18.6360433,7.36644541 C17.804627,6.2231632 16.9424174,5.18493935 16.0740493,4.27649348 C18.0817658,2.4039826 19.9663095,1.37811856 21.2473065,1.37811856 L21.2473065,0 C21.2473065,0 21.2473065,0 21.2473065,0 C19.5536806,0 17.3365704,1.21126116 15.0948256,3.31242847 C12.8530808,1.22362097 10.6359705,0.0247196155 8.94234465,0.0247196155 L8.94234465,1.40283818 C10.217183,1.40283818 12.1078854,2.42252232 14.1156019,4.28267338 C13.2533923,5.19111925 12.3911828,6.2231632 11.5720837,7.36644541 C10.1802312,7.5147631 8.86228234,7.74341955 7.65518898,8.04623484 C7.51354027,7.42824445 7.4088434,6.82879377 7.33493972,6.25406271 C7.04548366,3.89333944 7.40268476,2.05790799 8.2341011,1.56969558 C8.41886029,1.45845731 8.65904723,1.40901808 8.94234465,1.40901808 L8.94234465,0.0308995193 C8.94234465,0.0308995193 8.94234465,0.0308995193 8.94234465,0.0308995193 C8.42501893,0.0308995193 7.95696232,0.142137789 7.55049211,0.376974136 C5.81991439,1.37811856 5.4319201,4.49897002 6.32492284,8.41702907 C2.49424902,9.60357061 1.77635684e-15,11.5008011 1.77635684e-15,13.50309 C1.77635684e-15,15.5115587 2.5065663,17.4149691 6.34955739,18.5953307 C5.4627133,22.5257496 5.85686623,25.652781 7.59360259,26.6539254 C7.99391416,26.8887617 8.46197076,27 8.97929649,27 C10.6729224,27 12.8900326,25.7887388 15.1317774,23.6875715 C17.3735222,25.776379 19.5906325,26.9752804 21.2842583,26.9752804 C21.8015841,26.9752804 22.2696407,26.8640421 22.6761109,26.6292058 C24.4066886,25.6280613 24.7946829,22.5072099 23.9016802,18.5891508 C27.7200367,17.4087892 30.2142857,15.5053788 30.2142857,13.50309 Z M22.195737,9.38109407 C21.9678673,10.1783017 21.6845699,11.0002289 21.3643207,11.8221561 C21.1118164,11.3277638 20.8469949,10.8333715 20.5575389,10.3389792 C20.2742415,9.84458686 19.9724681,9.36255436 19.6706948,8.89288167 C20.5452216,9.02265965 21.3889552,9.18333715 22.195737,9.38109407 Z M19.3750801,15.9626917 C18.8947062,16.7969787 18.402015,17.5880064 17.8908479,18.323415 C16.9732106,18.4037537 16.0432561,18.447013 15.1071429,18.447013 C14.1771883,18.447013 13.2472337,18.4037537 12.3357551,18.3295949 C11.824588,17.5941863 11.3257382,16.8093385 10.8453643,15.9812314 C10.3773077,15.171664 9.95236154,14.3497368 9.56436725,13.5216297 C9.9462029,12.6935225 10.3773077,11.8654154 10.8392056,11.055848 C11.3195795,10.221561 11.8122707,9.4305333 12.3234378,8.69512474 C13.2410751,8.61478599 14.1710296,8.57152667 15.1071429,8.57152667 C16.0370974,8.57152667 16.967052,8.61478599 17.8785307,8.68894484 C18.3896977,9.4243534 18.8885476,10.2092012 19.3689214,11.0373083 C19.836978,11.8468757 20.2619242,12.6688029 20.6499185,13.49691 C20.2619242,14.3250172 19.836978,15.1531243 19.3750801,15.9626917 Z M21.3643207,15.1593042 C21.6968872,15.9874113 21.9801846,16.8155184 22.2142129,17.6189059 C21.4074311,17.8166629 20.5575389,17.9835203 19.6768534,18.1132982 C19.9786268,17.6374456 20.2804001,17.1492332 20.5636975,16.648661 C20.8469949,16.1542687 21.1118164,15.6536965 21.3643207,15.1593042 Z M15.1194601,21.7532616 C14.5467067,21.1599908 13.9739532,20.4987411 13.4073583,19.7756924 C13.9616359,19.800412 14.5282307,19.8189517 15.1009842,19.8189517 C15.6798963,19.8189517 16.2526498,19.8065919 16.813086,19.7756924 C16.2588085,20.4987411 15.686055,21.1599908 15.1194601,21.7532616 Z M10.5374323,18.1132982 C9.66290548,17.9835203 8.81917186,17.8228428 8.01239008,17.6250858 C8.24025974,16.8278782 8.52355716,16.005951 8.84380642,15.1840238 C9.09631064,15.6784161 9.36113214,16.1728084 9.6505882,16.6672007 C9.94004426,17.161593 10.235659,17.6436255 10.5374323,18.1132982 Z M15.0886669,5.25291829 C15.6614204,5.84618906 16.2341739,6.50743877 16.8007687,7.23048753 C16.2464912,7.20576791 15.6798963,7.1872282 15.1071429,7.1872282 C14.5282307,7.1872282 13.9554773,7.19958801 13.3950411,7.23048753 C13.9493186,6.50743877 14.5220721,5.84618906 15.0886669,5.25291829 Z M10.5312737,8.89288167 C10.2295003,9.36873426 9.92772698,9.85694667 9.64442956,10.3575189 C9.36113214,10.8519112 9.09631064,11.3463035 8.84380642,11.8406958 C8.51123988,11.0125887 8.22794246,10.1844816 7.99391416,9.38109407 C8.80069594,9.18951705 9.6505882,9.02265965 10.5312737,8.89288167 Z M4.95770485,16.6301213 C2.77754644,15.6969558 1.36721798,14.4733349 1.36721798,13.50309 C1.36721798,12.532845 2.77754644,11.3030442 4.95770485,10.3760586 C5.48734785,10.1474022 6.06625997,9.94346532 6.66364801,9.7518883 C7.01469047,10.9631495 7.47658843,12.2238499 8.04934191,13.5154498 C7.48274707,14.8008698 7.02700775,16.0553902 6.68212393,17.2604715 C6.07241861,17.0688945 5.49350649,16.8587778 4.95770485,16.6301213 Z M8.27105294,25.4612039 C7.43347796,24.9791714 7.07011822,23.14374 7.35341564,20.7830167 C7.42116068,20.2021057 7.53201619,19.5902953 7.66750626,18.966125 C8.87459962,19.2627604 10.1925485,19.4914168 11.5782424,19.6397345 C12.4096587,20.7830167 13.2718683,21.8212406 14.1402364,22.7296864 C12.1325199,24.6021973 10.2479762,25.6280613 8.96697921,25.6280613 C8.68984043,25.6218814 8.45581213,25.5662623 8.27105294,25.4612039 Z M22.879346,20.7521172 C23.168802,23.1128405 22.811601,24.9482719 21.9801846,25.4364843 C21.7954254,25.5477226 21.5552385,25.5971618 21.2719411,25.5971618 C19.9971027,25.5971618 18.1064003,24.5774777 16.0986838,22.7173266 C16.9608934,21.8088808 17.8231029,20.7768368 18.642202,19.6335546 C20.0340545,19.4852369 21.3520034,19.2565805 22.5590967,18.9537652 C22.7007454,19.5779355 22.811601,20.1773861 22.879346,20.7521172 Z M25.2504222,16.6301213 C24.7207792,16.8587778 24.1418671,17.0627146 23.5444791,17.2542916 C23.1934366,16.0430304 22.7315386,14.7823301 22.1587852,13.4907301 C22.72538,12.2053101 23.1811193,10.9507897 23.5260031,9.7457084 C24.1357085,9.93728542 24.7146206,10.1474022 25.2565809,10.3760586 C27.4367393,11.3092241 28.8470677,12.532845 28.8470677,13.50309 C28.8409091,14.4733349 27.4305806,15.7031357 25.2504222,16.6301213 Z" id="Shape"></path>
                                <circle id="Oval" cx="15.1071429" cy="13.1785714" r="2.89285714"></circle>
                            </g>
                        </g>
                    </g>
                </g>
            </g>
        </g>
    </g>
</svg>