<?xml version="1.0" encoding="UTF-8"?>
<svg width="52px" height="48px" viewBox="0 0 52 48" version="1.1" xmlns="http://www.w3.org/2000/svg" xmlns:xlink="http://www.w3.org/1999/xlink">
    <!-- Generator: Sketch 60.1 (88133) - https://sketch.com -->
    <title>time</title>
    <desc>Created with Sketch.</desc>
    <g id="Page-1" stroke="none" stroke-width="1" fill="none" fill-rule="evenodd">
        <g id="Product-Copy-2" transform="translate(-530.000000, -4497.000000)" fill="#232428">
            <g id="Group-28" transform="translate(162.000000, 4491.000000)">
                <g id="Group-23" transform="translate(368.000000, 6.000000)">
                    <g id="time">
                        <path d="M24,39 C15.7157288,39 9,32.2842712 9,24 C9,15.7157288 15.7157288,9 24,9 C32.2842712,9 39,15.7157288 39,24 C39,32.2842712 32.2842712,39 24,39 Z M46,24 C46,11.8497355 36.1502645,2 24,2 C11.8497355,2 2,11.8497355 2,24 C2,36.1502645 11.8497355,46 24,46 C24.5522847,46 25,46.4477153 25,47 C25,47.5522847 24.5522847,48 24,48 C10.745166,48 0,37.254834 0,24 C0,10.745166 10.745166,0 24,0 C37.254834,0 48,10.745166 48,24 L51.7842577,24 C51.9034089,24 52,24.0974473 52,24.2176547 C52,24.2591381 51.9882493,24.2997576 51.9661319,24.3347287 L47.1818877,31.899392 C47.1177977,32.0007288 46.9844145,32.0304626 46.8839682,31.9658045 C46.8574959,31.9487641 46.8350299,31.926099 46.8181392,31.899392 L42.0338951,24.3347287 C41.969805,24.233392 41.9992776,24.0988265 42.099724,24.0341683 C42.1343879,24.0118549 42.1746504,24 42.2157693,24 L46,24 Z M25,17 C25,16.4477153 24.5522847,16 24,16 C23.4477153,16 23,16.4477153 23,17 L23,25 C23,25.3343532 23.1671011,25.6465845 23.4452998,25.8320503 L29.4452998,29.8320503 C29.9048285,30.1384028 30.5256978,30.0142289 30.8320503,29.5547002 C31.1384028,29.0951715 31.0142289,28.4743022 30.5547002,28.1679497 L25,24.4648162 L25,17 Z" id="Shape"></path>
                    </g>
                </g>
            </g>
        </g>
    </g>
</svg>