<?xml version="1.0" encoding="UTF-8"?>
<svg width="31px" height="31px" viewBox="0 0 31 31" version="1.1" xmlns="http://www.w3.org/2000/svg" xmlns:xlink="http://www.w3.org/1999/xlink">
    <!-- Generator: Sketch 55.1 (78136) - https://sketchapp.com -->
    <title>travel</title>
    <desc>Created with Sketch.</desc>
    <g id="website" stroke="none" stroke-width="1" fill="none" fill-rule="evenodd">
        <g id="Product-Copy" transform="translate(-256.000000, -3943.000000)">
            <g id="templates" transform="translate(1.000000, 3552.000000)">
                <g id="Group-23" transform="translate(162.000000, 254.000000)">
                    <g id="Group-22" transform="translate(88.000000, 130.000000)">
                        <g id="travel" transform="translate(0.000000, 2.000000)">
                            <polygon id="Path" points="0 0 42 0 42 42 0 42"></polygon>
                            <path d="M22.92237,25.3879034 L25.3890903,22.9209013 L35.2732214,32.8061616 C35.9459633,33.4789803 35.9459633,34.5830932 35.2732214,35.2731637 C34.6004795,35.9459825 33.4964927,35.9459825 32.806501,35.2731637 L22.92237,25.3879034 L22.92237,25.3879034 Z M30.3225309,15.5026431 L32.5132546,13.3116692 C34.0484861,11.7762623 33.8414886,9.11949077 31.978511,7.99812617 C25.2683418,3.89220654 16.4019485,4.73754293 10.5887685,10.5341353 C17.3679369,8.29140614 24.9233459,10.1028413 30.3225309,15.5026431 Z M10.5370191,10.5858906 C4.74108891,16.3997348 3.89584908,25.2671411 7.98404987,31.9780769 C9.12253616,33.8412674 11.7617544,34.0655403 13.2969859,32.5128816 L15.4877095,30.3219077 C10.1057743,24.9221058 8.29454613,17.3658336 10.5370191,10.5858906 Z M10.5715187,10.5513871 L10.5542689,10.5686389 C9.89877682,15.7614196 12.5724946,22.4378519 17.9716796,27.8549056 L27.8558106,17.9696453 C22.4566256,12.5698434 15.7637062,9.89582011 10.5715187,10.5513871 Z" id="Shape" fill="#0070FF" fill-rule="nonzero"></path>
                        </g>
                    </g>
                </g>
            </g>
        </g>
    </g>
</svg>