<?xml version="1.0" encoding="UTF-8"?>
<svg width="29px" height="26px" viewBox="0 0 29 26" version="1.1" xmlns="http://www.w3.org/2000/svg" xmlns:xlink="http://www.w3.org/1999/xlink">
    <!-- Generator: Sketch 55.2 (78181) - https://sketchapp.com -->
    <title>travel</title>
    <desc>Created with Sketch.</desc>
    <g id="website" stroke="none" stroke-width="1" fill="none" fill-rule="evenodd">
        <g id="Product-Copy-2" transform="translate(-589.000000, -5618.000000)">
            <g id="Group-4" transform="translate(-138.000000, 5540.000000)">
                <g id="Group-23" transform="translate(504.000000, 67.000000)">
                    <g id="Group-22" transform="translate(218.000000, 0.000000)">
                        <g id="travel" transform="translate(0.000000, 6.000000)">
                            <polygon id="Path" points="0.258154544 0.479640973 39.3057736 0.479640973 39.3057736 36.6701172 0.258154544 36.6701172"></polygon>
                            <path d="M21.4827836,22.1480887 L23.806225,20.0567525 L33.1162385,28.436722 C33.7499043,29.0070864 33.7499043,29.943069 33.1162385,30.5280581 C32.4825727,31.0984226 31.4427108,31.0984226 30.7927971,30.5280581 L21.4827836,22.1480887 L21.4827836,22.1480887 Z M28.4531078,13.7681192 L30.5165838,11.9107787 C31.9626417,10.6091778 31.7676676,8.35696962 30.0129007,7.40636226 C23.6924901,3.92567686 15.3410993,4.64228856 9.86557648,9.55619736 C16.2509784,7.65498265 23.3675332,9.19057915 28.4531078,13.7681192 Z M9.81683295,9.60007155 C4.35755802,14.5286051 3.56141375,22.0457156 7.41215233,27.734735 C8.4845099,29.3142057 10.9704297,29.5043271 12.4164877,28.1881016 L14.4799636,26.330761 C9.4106369,21.753221 7.70461348,15.3475899 9.81683295,9.60007155 Z M9.84932864,9.57082209 L9.8330808,9.58544682 C9.2156628,13.9874901 11.7340783,19.6472601 16.8196529,24.2394249 L26.1296664,15.8594554 C21.0440918,11.2819153 14.7399291,9.01508241 9.84932864,9.57082209 Z" id="Shape" fill="#FFFFFF" fill-rule="nonzero"></path>
                        </g>
                    </g>
                </g>
            </g>
        </g>
    </g>
</svg>